<?xml version="1.0" standalone="no"?>
<!DOCTYPE svg PUBLIC "-//W3C//DTD SVG 20010904//EN"
 "http://www.w3.org/TR/2001/REC-SVG-20010904/DTD/svg10.dtd">
<svg version="1.0" xmlns="http://www.w3.org/2000/svg"
 width="626.000000pt" height="626.000000pt" viewBox="0 0 626.000000 626.000000"
 preserveAspectRatio="xMidYMid meet">
<metadata>
Created by potrace 1.11, written by Peter Selinger 2001-2013
</metadata>
<g transform="translate(0.000000,626.000000) scale(0.100000,-0.100000)"
fill="#000000" stroke="none">
<path d="M495 6245 c-230 -59 -392 -209 -466 -430 l-24 -70 0 -2620 0 -2620
27 -73 c74 -198 215 -337 413 -403 l70 -24 2615 0 2615 0 70 24 c203 68 348
213 416 416 l24 70 0 2615 0 2615 -24 70 c-66 198 -205 339 -403 413 l-73 27
-2605 2 c-2105 1 -2615 -1 -2655 -12z m5194 -503 c19 -10 43 -34 53 -53 17
-32 18 -132 18 -2559 0 -2427 -1 -2527 -18 -2559 -10 -19 -34 -43 -53 -53 -32
-17 -132 -18 -2559 -18 -2427 0 -2527 1 -2559 18 -19 10 -43 34 -53 53 -17 32
-18 132 -18 2559 0 2427 1 2527 18 2559 10 19 34 43 53 53 32 17 132 18 2559
18 2427 0 2527 -1 2559 -18z"/>
<path d="M3045 5304 c-500 -29 -918 -271 -1153 -669 -81 -137 -132 -308 -134
-450 -2 -121 28 -192 115 -271 75 -67 144 -95 239 -95 183 -1 292 95 368 322
27 78 94 226 134 294 40 67 125 165 174 199 98 68 292 104 462 87 225 -24 418
-171 474 -362 54 -182 16 -336 -123 -493 -25 -29 -158 -156 -296 -283 -137
-126 -271 -252 -296 -280 -188 -202 -279 -433 -279 -706 0 -240 124 -377 340
-377 106 0 174 26 230 86 52 57 71 102 110 259 35 146 65 225 108 287 40 58
164 184 292 299 184 165 354 322 394 363 137 144 226 295 271 461 23 85 27
118 27 235 0 116 -4 153 -26 236 -47 179 -129 324 -256 458 -192 201 -453 332
-760 380 -100 15 -314 26 -415 20z"/>
<path d="M2952 1936 c-117 -44 -184 -105 -236 -216 -29 -61 -31 -72 -31 -175
1 -99 3 -116 29 -173 52 -113 172 -201 302 -222 143 -23 282 19 378 116 166
166 144 460 -45 611 -100 80 -275 105 -397 59z"/>
</g>
</svg>
